#tb 0: 1/12
#tb 1: 1/22050
0,          0,          0,        1,   153600, 0x00000000
1,          0,          0,    88224,   176448, 0x541ddc55
0,          1,          1,        1,   153600, 0x9c77862c
0,          2,          2,        1,   153600, 0xd487c33c
0,          3,          3,        1,   153600, 0x5c00c01c
0,          4,          4,        1,   153600, 0x5496c2a2
0,          5,          5,        1,   153600, 0x858ac5c0
0,          6,          6,        1,   153600, 0xe32fc7d9
0,          7,          7,        1,   153600, 0xabffc965
0,          8,          8,        1,   153600, 0x4171c8e7
0,          9,          9,        1,   153600, 0xaec4ca90
0,         10,         10,        1,   153600, 0x3cb4cb5d
0,         11,         11,        1,   153600, 0x3aedcdc0
0,         12,         12,        1,   153600, 0x0fa4cf55
0,         13,         13,        1,   153600, 0x66a1d146
0,         14,         14,        1,   153600, 0x3828d3ad
0,         15,         15,        1,   153600, 0x73ccd7a4
0,         16,         16,        1,   153600, 0xb815d983
0,         17,         17,        1,   153600, 0x11a5a54f
0,         18,         18,        1,   153600, 0x337d8bff
0,         19,         19,        1,   153600, 0x0a1c8e5c
0,         20,         20,        1,   153600, 0x09648a57
0,         21,         21,        1,   153600, 0xf7398ba4
0,         22,         22,        1,   153600, 0x836d8aaf
0,         23,         23,        1,   153600, 0x4ee385bf
0,         24,         24,        1,   153600, 0xacf2c4d6
0,         25,         25,        1,   153600, 0x0610f426
0,         26,         26,        1,   153600, 0xb798e4a1
0,         27,         27,        1,   153600, 0xdaabe17e
0,         28,         28,        1,   153600, 0x7b82def5
0,         29,         29,        1,   153600, 0x56afe483
0,         30,         30,        1,   153600, 0x4640acef
0,         31,         31,        1,   153600, 0x4415f46c
0,         32,         32,        1,   153600, 0x258d01d0
0,         33,         33,        1,   153600, 0x18a55ba1
0,         34,         34,        1,   153600, 0x165a7173
0,         35,         35,        1,   153600, 0xfa8a438b
0,         36,         36,        1,   153600, 0x57083a34
0,         37,         37,        1,   153600, 0xb39923cd
0,         38,         38,        1,   153600, 0x3e32fd70
0,         39,         39,        1,   153600, 0xa7e9eb7f
0,         40,         40,        1,   153600, 0x8c20ed88
0,         41,         41,        1,   153600, 0x8c9bed27
0,         42,         42,        1,   153600, 0xc79af188
0,         43,         43,        1,   153600, 0x3bda00c8
0,         44,         44,        1,   153600, 0x03f837a7
0,         45,         45,        1,   153600, 0x550b83e3
0,         46,         46,        1,   153600, 0xc0bc6080
0,         47,         47,        1,   153600, 0xb8d968ed
0,         48,         48,        1,   153600, 0x893e2348
1,      88224,      88224,     1838,     3676, 0xaf455081
0,         49,         49,        1,   153600, 0x6cd01834
1,      90062,      90062,     1838,     3676, 0x27ef4e91
0,         50,         50,        1,   153600, 0x9e6926c5
1,      91900,      91900,     1838,     3676, 0xd1d986a3
0,         51,         51,        1,   153600, 0x4b57a4ea
1,      93738,      93738,     1838,     3676, 0xaaa2b589
0,         52,         52,        1,   153600, 0xaab2cfcd
1,      95576,      95576,     1838,     3676, 0x6e794ff9
0,         53,         53,        1,   153600, 0xffbb334d
1,      97414,      97414,     1838,     3676, 0x266351f1
0,         54,         54,        1,   153600, 0x4b37e5a9
1,      99252,      99252,     1838,     3676, 0xdeae50b2
0,         55,         55,        1,   153600, 0x3486dee0
1,     101090,     101090,     1838,     3676, 0x90f1f96a
0,         56,         56,        1,   153600, 0xa7185454
1,     102928,     102928,     1838,     3676, 0xea07adf9
0,         57,         57,        1,   153600, 0xec29b8c2
1,     104766,     104766,     1838,     3676, 0xb80a8925
0,         58,         58,        1,   153600, 0x01e562ba
1,     106604,     106604,     1838,     3676, 0xc392a1da
0,         59,         59,        1,   153600, 0xe695cda3
1,     108442,     108442,     1838,     3676, 0xa076bdda
0,         60,         60,        1,   153600, 0xf6b59dac
1,     110280,     110280,     1838,     3676, 0x8f40b4cc
0,         61,         61,        1,   153600, 0xb308206b
1,     112118,     112118,     1838,     3676, 0x4227fe30
0,         62,         62,        1,   153600, 0xcc6ede4a
1,     113956,     113956,     1838,     3676, 0x82b31ec8
0,         63,         63,        1,   153600, 0xd9f8071c
1,     115794,     115794,     1838,     3676, 0x3ba04042
0,         64,         64,        1,   153600, 0xfb434821
1,     117632,     117632,     1838,     3676, 0x6fe7440a
0,         65,         65,        1,   153600, 0x84c97077
1,     119470,     119470,     1838,     3676, 0x23e33177
0,         66,         66,        1,   153600, 0x82dc5217
1,     121308,     121308,     1838,     3676, 0x1f14242c
0,         67,         67,        1,   153600, 0xdbfd0ba8
1,     123146,     123146,     1838,     3676, 0x72931fb0
0,         68,         68,        1,   153600, 0x3d71058e
1,     124984,     124984,     1838,     3676, 0x2b1351c2
0,         69,         69,        1,   153600, 0x3027b928
1,     126822,     126822,     1838,     3676, 0x6aee7070
0,         70,         70,        1,   153600, 0x792ae3bd
1,     128660,     128660,     1838,     3676, 0x237658fa
0,         71,         71,        1,   153600, 0x36db00a7
1,     130498,     130498,     1838,     3676, 0xac001143
0,         72,         72,        1,   153600, 0x4484e720
1,     132336,     132336,     1838,     3676, 0x1921ee21
0,         73,         73,        1,   153600, 0xfaa76cdc
1,     134174,     134174,     1838,     3676, 0x80186091
0,         74,         74,        1,   153600, 0x9f1e4c7e
1,     136012,     136012,     1838,     3676, 0xb7f37ede
0,         75,         75,        1,   153600, 0x4b545d88
1,     137850,     137850,     1838,     3676, 0x355227ef
0,         76,         76,        1,   153600, 0xa11cfd15
1,     139688,     139688,     1838,     3676, 0xb0411f35
0,         77,         77,        1,   153600, 0x9f5d49c4
1,     141526,     141526,     1838,     3676, 0xe7c4fe0e
0,         78,         78,        1,   153600, 0x7a496740
1,     143364,     143364,     1838,     3676, 0x0425984d
0,         79,         79,        1,   153600, 0x98477803
1,     145202,     145202,     1838,     3676, 0xfd59dea1
0,         80,         80,        1,   153600, 0xa5fc20f8
1,     147040,     147040,     1838,     3676, 0xa53d5aab
0,         81,         81,        1,   153600, 0x344ff96e
1,     148878,     148878,     1838,     3676, 0x8bc403c2
0,         82,         82,        1,   153600, 0x20c91746
1,     150716,     150716,     1838,     3676, 0x7dd638c2
0,         83,         83,        1,   153600, 0x7c59b379
1,     152554,     152554,     1838,     3676, 0x284913eb
0,         84,         84,        1,   153600, 0x38e3b86d
1,     154392,     154392,     1838,     3676, 0xec17e83c
0,         85,         85,        1,   153600, 0xff25a440
1,     156230,     156230,     1838,     3676, 0x40543463
0,         86,         86,        1,   153600, 0xa1f66533
1,     158068,     158068,     1838,     3676, 0x92d81bf8
0,         87,         87,        1,   153600, 0xe136260a
1,     159906,     159906,     1838,     3676, 0x44ef161d
0,         88,         88,        1,   153600, 0x048ccf56
1,     161744,     161744,     1838,     3676, 0x499df3d5
0,         89,         89,        1,   153600, 0x65f68a24
1,     163582,     163582,     1838,     3676, 0xf98f4d75
0,         90,         90,        1,   153600, 0xf32b385a
1,     165420,     165420,     1838,     3676, 0x8ffe2681
0,         91,         91,        1,   153600, 0x3e930a8f
1,     167258,     167258,     1838,     3676, 0x84093bfd
1,     169096,     169096,     1838,     3676, 0x5f9c2e32
1,     170934,     170934,     1838,     3676, 0x8f93c29b
1,     172772,     172772,     1838,     3676, 0xf0ada687
1,     174610,     174610,     1838,     3676, 0x30019db2
1,     176448,     176448,     1838,     3676, 0x06ebace3
1,     178286,     178286,     1838,     3676, 0xc293d944
1,     180124,     180124,     1838,     3676, 0x789ff65e
1,     181962,     181962,     1838,     3676, 0xa2ae13c1
1,     183800,     183800,     1838,     3676, 0xb64f1cd9
1,     185638,     185638,     1838,     3676, 0x18f4e36a
1,     187476,     187476,     1838,     3676, 0xe9ccd0f0
1,     189314,     189314,     1838,     3676, 0xc215b4ab
1,     191152,     191152,     1838,     3676, 0x45b5c410
1,     192990,     192990,     1838,     3676, 0xf84a9939
1,     194828,     194828,     1838,     3676, 0xc8aff71e
1,     196666,     196666,     1838,     3676, 0x76cc3afc
1,     198504,     198504,     1838,     3676, 0x524e1dd6
1,     200342,     200342,     1838,     3676, 0x115a3f10
1,     202180,     202180,     1838,     3676, 0xd2bb51d1
1,     204018,     204018,     1838,     3676, 0xe1dbfca5
1,     205856,     205856,     1838,     3676, 0xc428f070
1,     207694,     207694,     1838,     3676, 0x6aa4dddf
1,     209532,     209532,     1838,     3676, 0xa0428f08
1,     211370,     211370,     1838,     3676, 0x8fd7e256
1,     213208,     213208,     1838,     3676, 0x41cb1787
1,     215046,     215046,     1838,     3676, 0xe348568e
1,     216884,     216884,     1838,     3676, 0x79091a0c
1,     218722,     218722,     1838,     3676, 0x592f6f2e
1,     220560,     220560,     1838,     3676, 0xa151448f
1,     222398,     222398,     1838,     3676, 0xb3402e7a
1,     224236,     224236,     1838,     3676, 0x74112e27
1,     226074,     226074,     1838,     3676, 0xba090659
1,     227912,     227912,     1838,     3676, 0xa0451f81
1,     229750,     229750,     1838,     3676, 0x09c7393a
1,     231588,     231588,     1838,     3676, 0xceb4e340
1,     233426,     233426,     1838,     3676, 0x0440291a
1,     235264,     235264,     1838,     3676, 0xb7b930c4
1,     237102,     237102,     1838,     3676, 0x1a2afa4a
1,     238940,     238940,     1838,     3676, 0x414fee56
1,     240778,     240778,     1838,     3676, 0x5e26bc97
1,     242616,     242616,     1838,     3676, 0x780e0481
1,     244454,     244454,     1838,     3676, 0xb6dfb9c5
1,     246292,     246292,     1838,     3676, 0x447b36ca
1,     248130,     248130,     1838,     3676, 0x601c3067
1,     249968,     249968,     1838,     3676, 0x199f2f8d
1,     251806,     251806,     1838,     3676, 0x98645b08
